{"title":"Playing.with.Dolls.2015.BRRip.x264-MenaceIISociety","uid":11774932,"size":774120983,"categoryP":"video","categoryS":"movies","magnet":"?xt=urn:btih:c99d1a2995be6140923e77ad122a8ab58e2a46f0&amp;dn=Playing.with.Dolls.2015.BRRip.x264-MenaceIISociety&amp;tr=udp%3A%2F%2Ftracker.openbittorrent.com%3A80&amp;tr=udp%3A%2F%2Fopen.demonii.com%3A1337&amp;tr=udp%3A%2F%2Ftracker.coppersurfer.tk%3A6969&amp;tr=udp%3A%2F%2Fexodus.desync.com%3A6969","seeders":9,"leechers":1,"uploader":"xxxlavalxxx","files":3,"time":1427239548,"description":"[img]http://i.imgur.com/d2sPgez.jpg[/img]\n\n[url]http://www.imdb.com/title/tt4145836/[/url]\n\n\nA serial killer is purposely released from an asylum for the criminally insane so that he can continue his rampage.\n\nDirector: Rene Perez\nWriters: Barry Massoni, Rene Perez\nStars: Natasha Blasick, Richard Tyson, Charlie Glackin \nGenres: Horror\nCountry: USA\nLanguage: English\n\n\nSource: DL.1080p.BluRay.x264-ENCOUNTERS [THANKS]\n\nGeneral\nComplete name: Playing.with.Dolls.2015.BRRip.x264-MenaceIISociety.mp4\nFormat: MPEG-4\nFormat profile: Base Media\nCodec ID: isom\nFile size: 738 MiB\nDuration: 1h 23mn\nOverall bit rate mode: Variable\nOverall bit rate: 1 241 Kbps\nEncoded date: UTC 2015-03-24 20:30:13\nTagged date: UTC 2015-03-24 20:30:13\n\nVideo\nID: 1\nFormat: AVC\nFormat/Info: Advanced Video Codec\nFormat profile: &lt;a class=&quot;__cf_email__&quot; href=&quot;/cdn-cgi/l/email-protection&quot; data-cfemail=&quot;e9a1808e81a9a5ddc7d8&quot;&gt;[email&amp;#160;protected]&lt;/a&gt;&lt;script cf-hash='f9e31' type=&quot;text/javascript&quot;&gt;\n/* &lt;![CDATA[ */!function(){try{var t=&quot;currentScript&quot;in document?document.currentScript:function(){for(var t=document.getElementsByTagName(&quot;script&quot;),e=t.length;e--;)if(t[e].getAttribute(&quot;cf-hash&quot;))return t[e]}();if(t&amp;&amp;t.previousSibling){var e,r,n,i,c=t.previousSibling,a=c.getAttribute(&quot;data-cfemail&quot;);if(a){for(e=&quot;&quot;,r=parseInt(a.substr(0,2),16),n=2;a.length-n;n+=2)i=parseInt(a.substr(n,2),16)^r,e+=String.fromCharCode(i);e=document.createTextNode(e),c.parentNode.replaceChild(e,c)}}}catch(u){}}();/* ]]&gt; */&lt;/script&gt;\nFormat settings, CABAC: Yes\nFormat settings, ReFrames: 3 frames\nCodec ID: avc1\nCodec ID/Info: Advanced Video Coding\nDuration: 1h 23mn\nBit rate mode: Variable\nBit rate: 931 Kbps\nMaximum bit rate: 40.0 Mbps\nWidth: 720 pixels\nHeight: 400 pixels\nDisplay aspect ratio: 16:9\nFrame rate mode: Constant\nFrame rate: 23.976 fps\nColor space: YUV\nChroma subsampling: 4:2:0\nBit depth: 8 bits\nScan type: Progressive\nBits/(Pixel*Frame): 0.135\nStream size: 554 MiB (75%)\nWriting library: x264 core 146 r2538 121396c\n\nAudio\nID: 2\nFormat: AAC\nFormat/Info: Advanced Audio Codec\nFormat profile: LC\nCodec ID: 40\nDuration: 1h 23mn\nBit rate mode: Variable\nBit rate: 306 Kbps\nMaximum bit rate: 396 Kbps\nChannel(s): 6 channels\nChannel positions: Front: L C R, Side: L R, LFE\nSampling rate: 48.0 KHz\nCompression mode: Lossy\nStream size: 182 MiB (25%)\nLanguage: English\nEncoded date: UTC 2015-03-24 20:14:45\nTagged date: UTC 2015-03-24 20:35:25 \n &lt;a href=&quot;\nhttp://i.imgur.com/wqmL9Ev.jpg&quot; rel=&quot;nofollow&quot; target=&quot;_NEW&quot;&gt;\nhttp://i.imgur.com/wqmL9Ev.jpg&lt;/a&gt; &lt;a href=&quot;\nhttp://i.imgur.com/SB20dQw.jpg&quot; rel=&quot;nofollow&quot; target=&quot;_NEW&quot;&gt;\nhttp://i.imgur.com/SB20dQw.jpg&lt;/a&gt; &lt;a href=&quot;\nhttp://i.imgur.com/vx1hImB.jpg&quot; rel=&quot;nofollow&quot; target=&quot;_NEW&quot;&gt;\nhttp://i.imgur.com/vx1hImB.jpg&lt;/a&gt; &lt;a href=&quot;\nhttp://i.imgur.com/XgZR8xK.jpg&quot; rel=&quot;nofollow&quot; target=&quot;_NEW&quot;&gt;\nhttp://i.imgur.com/XgZR8xK.jpg&lt;/a&gt;","torrent":{"xt":"urn:btih:c99d1a2995be6140923e77ad122a8ab58e2a46f0","amp;dn":"Playing.with.Dolls.2015.BRRip.x264-MenaceIISociety","amp;tr":["udp%3A%2F%2Ftracker.openbittorrent.com%3A80","udp%3A%2F%2Fopen.demonii.com%3A1337","udp%3A%2F%2Ftracker.coppersurfer.tk%3A6969","udp%3A%2F%2Fexodus.desync.com%3A6969"],"infoHash":"c99d1a2995be6140923e77ad122a8ab58e2a46f0","infoHashBuffer":{"type":"Buffer","data":[201,157,26,41,149,190,97,64,146,62,119,173,18,42,138,181,142,42,70,240]},"announce":[],"urlList":[]}}